HIERARCHY
ROOT Hips
{
 OFFSET 0.000000 0.000000 0.000000
 CHANNELS 6 Xposition Yposition Zposition Yrotation Xrotation Zrotation
 JOINT Chest
 {
  OFFSET 0.000000 9.585900 0.002600
  CHANNELS 3 Yrotation Xrotation Zrotation
  JOINT Chest2
  {
   OFFSET 0.000000 9.601200 -0.005300
   CHANNELS 3 Yrotation Xrotation Zrotation
   JOINT Chest3
   {
    OFFSET 0.000000 9.561800 0.000000
    CHANNELS 3 Yrotation Xrotation Zrotation
    JOINT Chest4
    {
     OFFSET 0.000000 9.552100 0.000000
     CHANNELS 3 Yrotation Xrotation Zrotation
     JOINT Neck
     {
      OFFSET 0.000000 14.453000 0.000000
      CHANNELS 3 Yrotation Xrotation Zrotation
      JOINT Head
      {
       OFFSET 0.000000 8.936500 -0.011300
       CHANNELS 3 Yrotation Xrotation Zrotation
       End Site
       {
        OFFSET 0.000000 17.073600 -0.006000
       }
      }
     }
     JOINT RightCollar
     {
      OFFSET -2.921100 9.558500 0.000000
      CHANNELS 3 Yrotation Xrotation Zrotation
      JOINT RightShoulder
      {
       OFFSET -13.519700 0.000000 0.000000
       CHANNELS 3 Yrotation Xrotation Zrotation
       JOINT RightElbow
       {
        OFFSET 0.000000 -29.696600 0.000000
        CHANNELS 3 Yrotation Xrotation Zrotation
        JOINT RightWrist
        {
         OFFSET 0.000000 -24.004700 0.000000
         CHANNELS 3 Yrotation Xrotation Zrotation
         End Site
         {
          OFFSET 0.000000 -17.728500 0.000000
         }
        }
       }
      }
     }
     JOINT LeftCollar
     {
      OFFSET 2.921100 9.558500 0.000000
      CHANNELS 3 Yrotation Xrotation Zrotation
      JOINT LeftShoulder
      {
       OFFSET 13.519700 0.000000 0.000000
       CHANNELS 3 Yrotation Xrotation Zrotation
       JOINT LeftElbow
       {
        OFFSET 0.000000 -29.696600 0.000000
        CHANNELS 3 Yrotation Xrotation Zrotation
        JOINT LeftWrist
        {
         OFFSET 0.000000 -24.004700 0.000000
         CHANNELS 3 Yrotation Xrotation Zrotation
         End Site
         {
          OFFSET 0.000000 -17.728500 0.000000
         }
        }
       }
      }
     }
    }
   }
  }
 }
 JOINT RightHip
 {
  OFFSET -7.771700 -0.012900 -0.001300
  CHANNELS 3 Yrotation Xrotation Zrotation
  JOINT RightKnee
  {
   OFFSET 0.000000 -40.869800 0.001200
   CHANNELS 3 Yrotation Xrotation Zrotation
   JOINT RightAnkle
   {
    OFFSET 0.000000 -39.717900 0.002100
    CHANNELS 3 Yrotation Xrotation Zrotation
    JOINT RightToe
    {
     OFFSET 0.000000 -4.965400 11.033500
     CHANNELS 3 Yrotation Xrotation Zrotation
     End Site
     {
      OFFSET 0.000000 -1.423100 5.872300
     }
    }
   }
  }
 }
 JOINT LeftHip
 {
  OFFSET 7.771700 -0.012900 -0.001300
  CHANNELS 3 Yrotation Xrotation Zrotation
  JOINT LeftKnee
  {
   OFFSET 0.000000 -40.869800 0.001200
   CHANNELS 3 Yrotation Xrotation Zrotation
   JOINT LeftAnkle
   {
    OFFSET 0.000000 -39.717900 0.002100
    CHANNELS 3 Yrotation Xrotation Zrotation
    JOINT LeftToe
    {
     OFFSET 0.000000 -4.965400 11.033500
     CHANNELS 3 Yrotation Xrotation Zrotation
     End Site
     {
      OFFSET 0.000000 -1.423100 5.872300
     }
    }
   }
  }
 }
}
MOTION
Frames: 12
Frame Time: 0.008333
0.000000 85.388000 0.000000 0.000000 -5.767877 0.000000 0.000000 11.653817 0.000000 0.000000 -5.885947 0.000000 0.000000 -0.000000 0.000000 0.000000 -0.000000 0.000000 0.000000 12.528835 0.000000 0.000000 0.711642 0.000000 0.000000 -0.000000 0.000000 0.000000 0.000000 -90.000000 0.000000 -2.309062 0.000000 0.000000 2.309062 0.000000 0.000000 -0.000000 0.000000 0.000000 -0.000000 90.000000 0.000000 -2.309062 0.000000 0.000000 2.309062 0.000000 0.000000 8.520406 0.000000 0.000000 1.905762 0.000000 -0.000000 -4.658285 0.000000 0.000000 -0.000000 0.000000 0.000000 8.520406 0.000000 0.000000 1.905762 0.000000 -0.000000 -4.658285 0.000000 0.000000 -0.000000 0.000000
-40.609772 46.739840 15.843567 -176.310964 -27.005305 -2.857726 -0.957201 16.902531 1.248510 -0.149131 1.744220 0.169597 -0.245941 2.909380 0.280468 -1.122996 14.816247 1.320959 -5.417770 19.669594 -0.528474 -9.892595 0.846145 0.638530 1.247472 -3.092317 -4.097514 -20.720156 -44.468172 -28.035873 -88.494870 -46.728347 105.716445 -9.189949 -4.170687 -7.293909 2.661333 -0.868731 2.902693 -1.663465 -3.011693 13.901648 64.599315 -69.408487 -103.565778 -1.492833 12.737117 8.860273 9.388788 -59.292944 -19.785869 -148.407197 79.575900 -142.604186 -9.147587 -10.037171 -0.195899 0.052730 -0.424241 -0.094753 3.217376 -61.012495 3.836045 -94.977202 81.679470 -101.278226 1.038491 -4.950470 7.735102 0.130703 0.421427 -0.111197
-40.585421 46.742744 15.848330 -176.490306 -26.990414 -2.898157 -0.882387 16.913785 1.296385 -0.148516 1.753013 0.168689 -0.244804 2.923468 0.278944 -1.115181 14.849090 1.309864 -5.417587 19.581245 -0.559327 -9.719168 0.690983 0.629783 1.257430 -3.098028 -4.092029 -20.676467 -44.351648 -28.028763 -88.367167 -46.739577 105.565099 -9.200122 -4.201443 -7.362662 2.657700 -0.871394 2.886291 -1.579601 -3.059192 13.909399 64.539023 -69.249974 -103.546477 -1.441323 12.692862 8.909858 9.229069 -59.338616 -19.539999 -148.268112 79.629338 -142.369906 -9.133068 -10.015212 -0.354387 0.131082 -0.428727 -0.082028 3.035400 -61.048735 4.109526 -95.286269 81.691033 -101.545291 1.079214 -5.000147 7.757297 0.144525 0.430410 -0.201323
-40.565689 46.747469 15.850687 -176.648158 -26.996613 -2.920833 -0.838312 16.944567 1.312064 -0.147972 1.762275 0.167923 -0.243898 2.938228 0.277605 -1.107907 14.883405 1.299813 -5.350983 19.494323 -0.563704 -9.599458 0.525944 0.607791 1.271292 -3.102295 -4.087492 -20.651253 -44.219105 -28.001696 -88.233100 -46.764584 105.428929 -9.211735 -4.231619 -7.466665 2.654696 -0.870740 2.870388 -1.555406 -3.063231 13.872629 64.561753 -69.143690 -103.540288 -1.387482 12.637766 8.959512 9.083702 -59.359446 -19.324352 -148.258709 79.688339 -142.304056 -9.115957 -9.997896 -0.456286 0.168722 -0.432772 -0.092642 2.878790 -61.060602 4.329566 -95.594071 81.707995 -101.812200 1.125245 -5.041108 7.740359 0.151300 0.430305 -0.253829
-40.548660 46.752897 15.852291 -176.802033 -27.012360 -2.930262 -0.805358 16.986145 1.310795 -0.147478 1.771654 0.167112 -0.243044 2.953191 0.276203 -1.100860 14.918078 1.289441 -5.281213 19.404486 -0.568993 -9.473660 0.355433 0.583048 1.290052 -3.107063 -4.084190 -20.636783 -44.061410 -27.963006 -88.098769 -46.798057 105.311697 -9.232038 -4.265848 -7.610057 2.649718 -0.867700 2.856696 -1.529178 -3.065262 13.833636 64.591470 -69.042033 -103.535887 -1.334312 12.575208 9.007763 8.950321 -59.370809 -19.123398 -148.301679 79.749903 -142.313888 -9.089465 -9.980855 -0.539164 0.161218 -0.431779 -0.089482 2.743942 -61.061039 4.517740 -95.920597 81.732357 -102.098333 1.186313 -5.083481 7.674235 0.100997 0.432182 -0.166723
-40.528599 46.758031 15.854811 -176.966562 -27.024892 -2.954645 -0.758755 17.023991 1.330263 -0.147021 1.781035 0.166308 -0.242229 2.968245 0.274750 -1.094272 14.952760 1.278922 -5.208583 19.313670 -0.574598 -9.342537 0.182977 0.556725 1.309916 -3.113616 -4.079322 -20.617109 -43.871938 -27.924615 -87.958200 -46.833718 105.215953 -9.270335 -4.317308 -7.804462 2.640634 -0.859194 2.843753 -1.481608 -3.082643 13.804959 64.599055 -68.929262 -103.527190 -1.283407 12.512296 9.062757 8.859190 -59.383507 -18.912923 -148.266002 79.798571 -142.215057 -9.097033 -9.952678 -0.648605 0.190236 -0.437263 -0.048881 2.582785 -61.067641 4.744724 -96.282899 81.757428 -102.418696 1.234422 -5.127997 7.659228 0.090612 0.432387 -0.191837
-40.512375 46.763438 15.856278 -177.129357 -27.047241 -2.959517 -0.721239 17.067959 1.327302 -0.146761 1.790511 0.165519 -0.241754 2.983400 0.273261 -1.089474 14.987509 1.268138 -5.132443 19.223724 -0.580925 -9.204689 0.011913 0.527875 1.330044 -3.122897 -4.069116 -20.585914 -43.648872 -27.889435 -87.791449 -46.867668 105.134932 -9.333012 -4.397968 -8.063238 2.628396 -0.844155 2.830984 -1.437391 -3.099110 13.772564 64.611007 -68.824899 -103.514200 -1.233352 12.449314 9.128708 8.686177 -59.393071 -18.692018 -148.396290 79.879052 -142.325754 -9.054963 -9.934872 -0.732194 0.177626 -0.438178 -0.057891 2.458395 -61.064457 4.926779 -96.674679 81.781541 -102.765909 1.277034 -5.166635 7.642169 0.089190 0.425248 -0.214955
-40.496279 46.768854 15.857179 -177.290571 -27.074470 -2.966199 -0.687292 17.113969 1.322813 -0.146782 1.800028 0.164575 -0.241694 2.998544 0.271639 -1.087078 15.022021 1.256063 -5.052300 19.134157 -0.588184 -9.059059 -0.158570 0.495875 1.355345 -3.136033 -4.053981 -20.550250 -43.390382 -27.853296 -87.578771 -46.890993 105.063141 -9.421741 -4.515768 -8.400385 2.612497 -0.828406 2.821621 -1.396871 -3.106954 13.735483 64.629475 -68.730730 -103.495484 -1.185794 12.387104 9.202223 8.497585 -59.397819 -18.464935 -148.558174 79.963435 -142.467553 -9.011494 -9.918342 -0.820205 0.161515 -0.439937 -0.067963 2.335036 -61.057428 5.106546 -97.094986 81.806324 -103.136847 1.324654 -5.207893 7.605310 0.082349 0.418080 -0.220695
-40.478417 46.773709 15.858758 -177.453645 -27.097677 -2.982795 -0.650481 17.155612 1.327160 -0.146874 1.809236 0.163396 -0.241830 3.013158 0.269702 -1.085795 15.055265 1.242450 -4.934532 19.054135 -0.577366 -8.939357 -0.341537 0.455900 1.386181 -3.151952 -4.034400 -20.513205 -43.096762 -27.818923 -87.304897 -46.892762 104.996900 -9.539602 -4.676795 -8.822640 2.592409 -0.815012 2.816575 -1.361552 -3.105308 13.692885 64.653796 -68.648211 -103.472758 -1.141174 12.332518 9.285942 8.318760 -59.404990 -18.231291 -148.685420 80.041187 -142.559726 -8.972632 -9.899640 -0.919331 0.167109 -0.443943 -0.066920 2.200599 -61.056029 5.302948 -97.530505 81.831010 -103.517509 1.374034 -5.252399 7.566616 0.070928 0.413945 -0.226946
-40.460830 46.778178 15.860762 -177.614438 -27.118790 -2.997353 -0.618954 17.196040 1.327135 -0.147090 1.817903 0.162030 -0.242224 3.026919 0.267325 -1.086077 15.086599 1.227240 -4.865167 18.957484 -0.594706 -8.765284 -0.511614 0.422636 1.418625 -3.166383 -4.011878 -20.466780 -42.769149 -27.791663 -86.963904 -46.872337 104.933231 -9.683973 -4.882358 -9.322724 2.572100 -0.802048 2.811962 -1.338109 -3.099752 13.646632 64.678962 -68.575699 -103.443941 -1.094281 12.289305 9.389167 8.134831 -59.412644 -18.001790 -148.803925 80.118655 -142.641813 -8.930391 -9.886568 -1.021736 0.172682 -0.443969 -0.067066 2.076401 -61.057312 5.486573 -97.971818 81.854753 -103.898061 1.429028 -5.297014 7.525175 0.061644 0.409416 -0.249441
-40.443184 46.782499 15.863114 -177.772090 -27.138674 -3.010426 -0.592869 17.236180 1.322881 -0.147541 1.826144 0.160448 -0.242870 3.040085 0.264551 -1.088391 15.116479 1.209972 -4.794167 18.857437 -0.611902 -8.588418 -0.685667 0.389775 1.510392 -3.207328 -3.988648 -20.438365 -42.373412 -27.797629 -86.560673 -46.840441 104.865001 -9.839079 -5.126346 -9.889558 2.551733 -0.789389 2.805594 -1.327879 -3.093451 13.601926 64.694860 -68.506454 -103.402170 -1.045272 12.251911 9.512192 7.948622 -59.420191 -17.776769 -148.907188 80.194243 -142.706781 -8.885474 -9.874640 -1.129830 0.168945 -0.437598 -0.027551 1.957789 -61.061087 5.659560 -98.424315 81.876695 -104.282978 1.497532 -5.341966 7.477547 0.056383 0.402801 -0.304059
-40.421246 46.787646 15.864658 -177.938536 -27.165886 -3.040402 -0.553676 17.283279 1.337406 -0.147844 1.834158 0.158573 -0.243281 3.052974 0.261378 -1.089678 15.145727 1.190740 -4.706348 18.760680 -0.617769 -8.428936 -0.869452 0.357516 1.509230 -3.185165 -3.954096 -20.296435 -42.000063 -27.801766 -86.100562 -46.812112 104.779789 -9.987145 -5.396874 -10.513362 2.528204 -0.775164 2.799021 -1.326683 -3.090637 13.561577 64.686485 -68.437283 -103.338285 -0.995478 12.212696 9.647233 7.735494 -59.423231 -17.509245 -148.986719 80.266942 -142.741334 -8.853382 -9.853490 -1.209997 0.184347 -0.445591 -0.055614 1.861592 -61.053827 5.871582 -98.804412 81.853606 -104.574197 1.527008 -5.402232 7.415386 0.075351 0.418243 -0.288515
